<svg xmlns="http://www.w3.org/2000/svg" width="256" height="256"><path fill-opacity=".031" d="M0 128.004v128.004l128.25-.254 128.25-.254.254-127.75L257.008 0H0v128.004m.485.496c0 70.4.119 99.053.265 63.672.146-35.38.146-92.98 0-128C.604 29.153.485 58.1.485 128.5" fill="#1976D2" fill-rule="evenodd"/><path fill-opacity=".324" d="M0 128.004v128.004l128.25-.254 128.25-.254.254-127.75L257.008 0H0v128.004m.485.496c0 70.4.119 99.053.265 63.672.146-35.38.146-92.98 0-128C.604 29.153.485 58.1.485 128.5M33 29c-3.605 3.605-2.628 7.49 3.5 13.915 3.025 3.171 5.5 6.649 5.5 7.729s1.462 3.354 3.25 5.052l3.25 3.089 4.934-5.493 4.935-5.493L47.843 37.4C42.053 31.68 36.795 27 36.158 27c-.637 0-2.058.9-3.158 2m26.499 12.999l2.874 2.999 2.128-1.999C65.671 41.9 67.069 41 67.606 41c.538 0 2.915 1.974 5.282 4.386 4.989 5.083 4.903 5.545-2.319 12.58l-4.586 4.467 6.648 6.699c4.518 4.553 6.453 7.207 6.04 8.284-1.062 2.766-3.062 1.753-9.641-4.886l-6.412-6.47-5.735 5.47C53.729 74.539 50.797 77 50.366 77c-.43 0-2.488-1.666-4.574-3.703L42 69.594v65.503c0 49.613.291 65.794 1.2 66.703.906.906 15.373 1.2 58.98 1.2h57.78l.27-21.25.27-21.25 21.25-.27 21.25-.27V39H56.626l2.873 2.999m-2.336 15.337c-9.168 9.199-10.107 10.466-8.657 11.669 1.43 1.187 2.853.123 11.789-8.813 9.052-9.051 9.998-10.327 8.657-11.668-1.341-1.341-2.63-.377-11.789 8.812M42 62.622c0 2.228.228 2.434 1.512 1.368 1.151-.955 1.241-1.583.378-2.623-1.597-1.924-1.89-1.73-1.89 1.255M220 62c0 .55.45 1 1 1s1-.45 1-1-.45-1-1-1-1 .45-1 1M71.38 85.452c-.306.799-.266 1.924.09 2.5.944 1.527 114.724 1.454 116.252-.074.617-.617.884-1.742.593-2.5-.814-2.121-116.12-2.048-116.935.074m-16.713 16.215c-.367.366-.667 1.491-.667 2.5 0 1.759 2.694 1.833 66.893 1.833 55.909 0 66.98-.226 67.422-1.378 1.348-3.514-.663-3.622-67.348-3.622-36.099 0-65.934.3-66.3.667m-.487 19.583l.32 2.25 65.889.257c46.078.18 66.28-.067 67.19-.823.716-.594 1.056-1.722.755-2.507-.467-1.216-10.436-1.427-67.511-1.427H53.861l.319 2.25m.487 15.417c-.367.366-.667 1.491-.667 2.5 0 1.759 2.694 1.833 66.893 1.833 55.909 0 66.98-.226 67.422-1.378 1.348-3.514-.663-3.622-67.348-3.622-36.099 0-65.934.3-66.3.667m-.487 19.583l.32 2.25h92l.32-2.25.319-2.25H53.861l.319 2.25M165 182.239v17.239l17-16.978c9.35-9.338 17-17.095 17-17.239 0-.144-7.65-.261-17-.261h-17v17.239M54.677 171.657c-.373.372-.677 1.501-.677 2.51 0 1.751 2.078 1.833 46.57 1.833h46.569l-.319-2.25-.32-2.25-45.573-.26c-25.066-.143-45.878.045-46.25.417m-.497 19.593l.32 2.25h92l.32-2.25.319-2.25H53.861l.319 2.25" fill="#1976D2" fill-rule="evenodd"/><path fill-opacity=".503" d="M0 128.004v128.004l128.25-.254 128.25-.254.254-127.75L257.008 0H0v128.004m.485.496c0 70.4.119 99.053.265 63.672.146-35.38.146-92.98 0-128C.604 29.153.485 58.1.485 128.5m31.041-98.55c-2.487 4.809-1.863 6.846 3.974 12.965 3.025 3.171 5.5 6.649 5.5 7.729s1.585 3.5 3.522 5.377l3.522 3.414 5.728-5.729 5.728-5.729-10.706-10.488c-11.909-11.666-14.54-12.815-17.268-7.539M215 31c0 1.333-.667 2-2 2-1.1 0-2 .45-2 1s.9 1 2 1c1.479 0 2 .667 2 2.559 0 1.451.433 2.292 1 1.941.55-.34 1-1.46 1-2.489 0-1.143.876-2.044 2.25-2.314l2.25-.443-2.25-.744c-1.274-.421-2.25-1.56-2.25-2.627 0-1.035-.45-1.883-1-1.883s-1 .9-1 2M58.995 41.495l3.387 3.495 2.327-2.186 2.326-2.186 4.483 4.399c2.465 2.42 4.482 4.854 4.482 5.41 0 .555-2.335 3.375-5.19 6.265l-5.189 5.255 6.799 7.042c5.635 5.838 6.589 7.295 5.576 8.516-1.038 1.251-2.277.497-8.231-5.016C65.91 68.92 62.457 66 62.091 66c-.367 0-2.882 2.25-5.591 5s-5.416 5-6.016 5c-.601 0-2.618-1.575-4.484-3.5S42.246 69 41.804 69C41.362 69 41 98.055 41 133.566c0 64.655.138 67.491 3.4 69.669.605.404 26.863.741 58.35.75L160 204v-20.8c0-14.844.344-21.144 1.2-22 .856-.856 7.156-1.2 22-1.2H204V38H55.608l3.387 3.495M56.54 56.96c-9.859 9.896-9.911 9.973-8.039 12.041l1.883 2.081 10.279-10.244c9.668-9.636 10.182-10.351 8.653-12.041-.894-.988-1.902-1.797-2.24-1.797-.337 0-5.079 4.482-10.536 9.96M220 59c0 1.333-.667 2-2 2-1.1 0-2 .45-2 1s.9 1 2 1c1.333 0 2 .667 2 2 0 1.1.45 2 1 2s1-.9 1-2c0-1.333.667-2 2-2 1.1 0 2-.45 2-1s-.9-1-2-1c-1.333 0-2-.667-2-2 0-1.1-.45-2-1-2s-1 .9-1 2M41 62.655c0 3.597.032 3.626 2.008 1.838 1.88-1.701 1.902-1.935.345-3.655C41.112 58.361 41 58.447 41 62.655m167.179 60.679l-.32 40.166-22.171 22.25L163.517 208h-48.259c-45.294 0-48.258.107-48.257 1.75.003 4.239 2.945 16.624 4.262 17.941 1.265 1.266 10.879-.214 75.843-11.674 40.917-7.218 75.432-13.379 76.701-13.693 1.27-.313 2.968-1.577 3.775-2.809 1.332-2.032.539-7.501-8.551-59.038-5.51-31.239-10.134-56.913-10.275-57.054-.141-.141-.4 17.819-.577 39.911m-136.041-38c-.616.742-.825 1.646-.463 2.008.362.362 26.716.658 58.565.658 54.611 0 57.887-.1 57.57-1.75-.316-1.639-3.97-1.766-57.444-2.008-46.962-.212-57.307-.018-58.228 1.092m146.27 2.166c-1.517 2.316-1.517 2.684 0 5 2.644 4.035 9.592 2.487 9.592-2.137 0-5.5-6.578-7.463-9.592-2.863m2.151.084c-.921.921-1.423 2.328-1.117 3.127.307.799.558 1.641.558 1.871 0 .23 1.139.418 2.531.418 2.857 0 4.293-2.47 2.807-4.826-1.446-2.292-2.898-2.471-4.779-.59M54.19 103.75c.317 1.646 4.298 1.75 66.81 1.75s66.493-.104 66.81-1.75c.318-1.653-3.399-1.75-66.81-1.75s-67.128.097-66.81 1.75m.484 15.91c-.371.37-.674 1.273-.674 2.007 0 1.098 11.846 1.333 67.073 1.333 63.341 0 67.055-.097 66.737-1.75-.317-1.642-4.396-1.766-66.4-2.007-36.334-.141-66.366.046-66.736.417m-.484 19.09c.317 1.646 4.298 1.75 66.81 1.75s66.493-.104 66.81-1.75c.318-1.653-3.399-1.75-66.81-1.75s-67.128.097-66.81 1.75m.487 15.907c-.373.372-.677 1.276-.677 2.01 0 1.092 8.429 1.333 46.573 1.333 43.818 0 46.554-.104 46.237-1.75-.314-1.632-3.421-1.768-45.897-2.01-25.058-.143-45.864.045-46.236.417m118.52 10.066l-9.303.353.177 17.462c.098 9.604.464 17.462.814 17.462.813 0 35.115-34.315 35.115-35.129 0-.654-11.777-.719-26.803-.148M54.19 173.75c.316 1.636 3.322 1.75 46.31 1.75s45.994-.114 46.31-1.75c.317-1.646-2.423-1.75-46.31-1.75s-46.627.104-46.31 1.75m.262 16.327c-.373.604-.262 1.513.245 2.02.545.545 19.543.817 46.363.663 39.609-.227 45.44-.452 45.44-1.76s-5.858-1.533-45.685-1.76c-32.334-.184-45.883.061-46.363.837" fill="#1976D2" fill-rule="evenodd"/><path fill-opacity=".434" d="M30 22.704c-3.066 1.115-6.995 5.751-7.598 8.965-.977 5.209.291 8.158 6.149 14.299L34 51.681V201.2l3.4 3.4c3.365 3.365 3.494 3.4 12.429 3.4h9.029l1.034 5.25c.569 2.887 1.326 7.05 1.683 9.25.881 5.427 2.932 8.396 6.963 10.08 3.162 1.321 8.439.524 80.672-12.191 43.449-7.648 78.312-14.248 79.624-15.075 1.283-.808 2.97-2.993 3.748-4.855 1.322-3.164.568-8.176-11.538-76.71-7.245-41.018-13.083-76.833-13.248-81.287L207.5 34.5l-77.975-.256-77.975-.256-5.025-4.88c-2.764-2.683-6.008-5.38-7.209-5.993-2.27-1.159-6.722-1.355-9.316-.411m1.4 4.724c-3.366 1.465-4.426 3.268-4.353 7.404.035 1.981 2.673 5.435 10.25 13.421C42.909 54.167 47.95 58.956 48.5 58.895c.55-.061 3.235-2.568 5.966-5.571l4.965-5.461-11.053-10.931c-6.08-6.013-11.689-10.914-12.466-10.893-.777.022-2.807.647-4.512 1.389M58.274 41.74c3.208 3.209 3.988 3.564 5.483 2.494 3.622-2.591 4.425-2.462 8.314 1.335C74.232 47.679 76 49.892 76 50.487c0 .595-2.477 3.528-5.505 6.517l-5.504 5.437 6.504 6.554c6.281 6.329 7.85 9.005 5.28 9.005-.674 0-4.174-2.927-7.78-6.505l-6.554-6.504-5.437 5.504C54.015 73.523 51.084 76 50.492 76c-.591 0-3.052-2.013-5.467-4.474l-4.391-4.474 2.302-1.996c2.736-2.374 2.293-4.045-1.857-7L38 55.864v71.457c0 68.861.069 71.543 1.911 73.818l1.912 2.361 59.588.273 59.589.273V161h43V38H54.533l3.741 3.74m-1.612 15.097c-10.338 10.371-10.674 10.842-8.874 12.471 1.028.93 2.292 1.692 2.81 1.692C51.907 71 71 51.71 71 50.387c0-.592-.808-1.809-1.796-2.703-1.69-1.529-2.435-.985-12.542 9.153m151.417 63.138L208 163.451l-22.275 22.274L163.451 208h-49.726c-46.691 0-49.725.107-49.724 1.75.002 2.579 2.611 15.814 3.356 17.018 2.121 3.433 5.455 3.006 82.143-10.53 81.43-14.373 79.876-13.985 79.795-19.932-.037-2.704-19.958-116.77-20.749-118.806-.213-.55-.424 18.564-.467 42.475M72 86.508c0 1.33 6.822 1.478 57.667 1.25 45.059-.202 57.758-.531 58.083-1.508.33-.99-11.645-1.25-57.667-1.25C78.981 85 72 85.181 72 86.508M54.674 102.66c-.371.37-.674 1.048-.674 1.507 0 .458 30.188.833 67.083.833 53.223 0 66.998-.258 66.667-1.25-.326-.98-14.688-1.306-66.409-1.507-36.297-.141-66.297.046-66.667.417m-.424 18.59c.61 1.831 132.89 1.831 133.5 0 .331-.992-13.461-1.25-66.75-1.25s-67.081.258-66.75 1.25m.451 16.382c-.356.356-.407 1.034-.115 1.507.293.474 30.468.861 67.056.861 52.775 0 66.439-.258 66.108-1.25-.326-.98-14.688-1.306-66.409-1.507-36.297-.141-66.284.034-66.64.389m.421 17.272c-4.329 2.741.872 3.096 45.378 3.096s49.707-.355 45.378-3.096c-1.8-1.141-88.956-1.141-90.756 0M164 182.74v18.74L182.5 183c10.175-10.164 18.5-18.597 18.5-18.74 0-.143-8.325-.26-18.5-.26H164v18.74m-109.498-9.743c-.346.559-.038 1.244.685 1.521 2.602.998 90.814.009 90.814-1.018 0-1.394-90.64-1.893-91.499-.503m-.05 17.08c-.373.604-.262 1.513.245 2.02.545.545 19.543.817 46.363.663 39.609-.227 45.44-.452 45.44-1.76s-5.858-1.533-45.685-1.76c-32.334-.184-45.883.061-46.363.837" fill="#1976D2" fill-rule="evenodd"/></svg>